<svg version="1.1" id="Layer_1" xmlns="http://www.w3.org/2000/svg" xmlns:xlink="http://www.w3.org/1999/xlink" x="0px" y="0px" viewBox="404.6 107.1 650.8 650.8" xml:space="preserve"><circle cx="730.0" cy="432.5" r="305.3" fill="#0B2447"></circle>

<path fill="#F7F8FA" opacity="1.000000" stroke="none" d="
M497.204163,688.982666 
	C497.204163,688.982727 496.872162,688.814148 496.875732,688.238525 
	C494.836700,683.090088 493.614288,678.146667 488.829376,675.127441 
	C486.742340,673.810547 485.488281,671.105835 483.987946,668.940002 
	C480.004303,663.189453 476.048187,657.418701 472.167175,651.598633 
	C469.429138,647.492615 466.480804,643.471619 464.250488,639.094666 
	C460.533020,631.799438 457.441742,624.187927 453.850861,616.824585 
	C450.492859,609.938660 446.008453,603.493896 443.463165,596.341370 
	C437.492859,579.563965 431.726959,562.655396 427.134460,545.464294 
	C423.330811,531.226135 420.373688,516.681702 419.909302,501.771606 
	C419.716553,495.583862 418.473480,489.434906 417.879852,483.251770 
	C417.342407,477.653687 416.872131,472.038940 416.677460,466.420959 
	C416.471924,460.488647 416.223846,454.509644 416.723602,448.612823 
	C417.405182,440.571045 418.887177,432.600616 419.823486,424.575958 
	C420.867096,415.631439 420.830505,406.469543 422.782684,397.741974 
	C426.452423,381.335815 430.760010,365.035156 435.673798,348.956940 
	C439.191376,337.447174 443.420227,326.031433 448.619354,315.191345 
	C454.607330,302.706512 461.725983,290.728638 468.886078,278.851593 
	C475.482697,267.909241 482.020233,256.780365 489.971100,246.843704 
	C499.807831,234.550171 510.864075,223.197968 521.806030,211.836426 
	C528.140015,205.259598 535.154846,199.312256 542.093323,193.349350 
	C556.044800,181.359467 571.398315,171.354279 587.214661,162.024063 
	C591.552612,159.465073 595.752869,156.672653 600.255493,153.783752 
	C600.593994,153.181091 600.693298,152.782013 600.792664,152.382935 
	C600.835632,152.080261 601.005737,151.892944 601.826050,151.918533 
	C602.569092,152.040466 602.789062,152.064850 603.107666,152.238220 
	C603.466187,152.263184 603.726074,152.139145 603.993042,152.007568 
	C604.000061,152.000015 604.019287,151.991867 604.354980,151.992737 
	C605.456421,151.658844 606.222290,151.324066 607.156616,150.740341 
	C607.892151,149.727966 608.459229,148.964539 609.026306,148.201111 
	C609.397461,147.972809 609.768555,147.744507 610.568298,147.716675 
	C611.314331,147.570541 611.631775,147.223953 611.949219,146.877380 
	C612.430847,146.545258 612.912476,146.213135 613.715942,146.179077 
	C615.015076,146.319962 615.992371,146.162781 616.982117,145.998871 
	C616.994507,145.992172 617.016846,145.974991 617.310303,145.962173 
	C618.064575,145.636444 618.525452,145.323532 618.992310,145.005707 
	C618.998291,145.000778 619.014160,144.991180 619.397827,144.987488 
	C623.197510,143.810272 626.599487,142.593704 630.032043,141.470551 
	C646.387817,136.118805 662.574036,130.129578 679.171936,125.676796 
	C691.398926,122.396599 704.135925,120.922302 716.706787,119.054375 
	C724.384521,117.913528 732.171631,117.037247 739.920593,116.943298 
	C757.325378,116.732300 774.813354,116.122208 792.122559,117.497795 
	C806.982849,118.678772 821.701111,122.099983 836.369751,125.083626 
	C846.533203,127.150909 856.697449,129.588364 866.512390,132.895905 
	C877.584961,136.627243 888.275513,141.496872 899.116089,145.910965 
	C920.373901,154.566757 939.678406,166.763672 958.686707,179.381653 
	C967.027832,184.918655 974.725647,191.459702 982.485779,197.824844 
	C987.826660,202.205627 993.013794,206.831848 997.842224,211.766556 
	C1006.580688,220.697433 1015.047913,229.896561 1023.513184,239.089676 
	C1025.271118,240.998703 1026.309082,243.569305 1028.061523,245.485001 
	C1031.642822,249.399765 1035.483887,253.076691 1039.218018,256.851593 
	C1039.218018,256.851593 1039.111328,256.884186 1039.111816,257.158569 
	C1039.676758,257.956604 1040.241333,258.480255 1040.805786,259.003967 
	C1040.805786,259.003967 1041.141479,259.172211 1041.107178,259.759796 
	C1041.205811,261.141052 1041.078857,262.137573 1041.514160,262.695129 
	C1044.093384,265.998444 1044.767090,268.320740 1039.881958,270.487274 
	C1037.441406,271.569641 1035.930908,274.748749 1033.720215,277.127991 
	C1033.025513,277.328491 1032.610596,277.380402 1031.956543,277.077179 
	C1029.787842,276.579132 1027.741211,275.946533 1025.947754,276.374542 
	C1015.932434,278.764832 1006.040649,281.693970 995.989563,283.907562 
	C979.099854,287.627197 962.094971,290.820953 945.189392,294.471313 
	C928.151184,298.150299 911.197571,302.220306 894.163452,305.918884 
	C883.058411,308.330078 871.886902,310.441711 860.722290,312.567780 
	C856.668884,313.339661 852.513062,313.581879 848.467834,314.386902 
	C841.367310,315.800018 834.281982,317.327301 827.270203,319.119446 
	C825.684387,319.524750 824.426147,321.211761 822.874756,322.348145 
	C822.732361,322.387543 822.575867,322.136932 822.135132,322.105591 
	C819.508362,321.715271 817.322266,321.356323 815.136169,320.997406 
	C815.024597,316.959595 814.913025,312.921814 815.309570,308.364838 
	C817.879456,303.550964 821.329407,302.674072 825.791443,303.242371 
	C826.981934,303.394043 828.421814,301.588074 829.747192,300.680847 
	C829.747192,300.680847 829.840210,300.830536 830.143738,300.836243 
	C836.419617,297.437256 836.919983,289.138275 830.536682,285.557281 
	C822.765991,281.198029 816.549500,276.759705 811.763123,268.303833 
	C806.475830,258.962952 798.230164,250.955978 789.101807,244.121445 
	C782.763977,239.376282 776.829773,235.394104 768.840027,235.122284 
	C768.840027,235.122284 768.931641,235.051743 768.911560,234.738281 
	C767.992126,233.592194 767.228699,232.469208 766.171265,231.974380 
	C759.629456,228.913101 758.393127,225.950317 760.812683,219.158737 
	C763.321289,212.117401 763.055237,204.403488 757.633545,199.817596 
	C753.195007,196.063263 751.034424,191.849380 749.266541,187.053802 
	C748.096985,183.881241 746.611328,182.318405 742.269043,183.089951 
	C741.550964,191.314713 736.523621,197.792465 731.296204,204.163971 
	C730.891296,204.657501 730.396240,205.314163 730.433044,205.862167 
	C730.465698,206.349304 731.179321,206.790741 731.592407,207.252335 
	C731.381653,209.219849 731.170898,211.187393 730.523315,213.673645 
	C729.892334,217.869965 729.787720,221.555511 729.461243,225.221298 
	C729.326294,226.736862 729.188416,229.020294 728.244568,229.571091 
	C722.110352,233.150864 716.024475,237.180801 709.364563,239.348801 
	C705.619324,240.567993 703.029236,242.241119 700.458618,244.834930 
	C696.278748,249.052521 692.391479,253.886307 687.436584,256.916016 
	C682.673340,259.828583 681.688599,263.669556 681.111328,268.302643 
	C681.111328,268.302643 681.088318,268.749207 680.552856,268.879028 
	C677.554016,271.736938 675.426208,274.904053 672.555237,277.099121 
	C667.073853,281.289917 660.980835,284.687469 655.561523,288.948212 
	C654.055542,290.132263 653.002380,293.466492 653.504089,295.343048 
	C655.197693,301.678131 661.118042,304.889648 667.793823,303.866302 
	C669.003418,303.680878 670.206604,303.452942 672.000610,303.143066 
	C672.000610,305.545593 672.000610,307.346588 672.000549,309.147552 
	C672.000366,323.304413 671.877258,337.462738 672.041504,351.617676 
	C672.158936,361.736908 673.314575,371.887695 672.759216,381.955566 
	C672.400330,388.462036 673.898376,395.550049 669.504395,401.598602 
	C668.962524,402.344482 669.878784,404.691864 670.746765,405.810059 
	C672.731506,408.366913 672.492798,409.703613 669.153137,409.979004 
	C664.536743,410.359772 659.918884,410.793701 655.292725,410.967590 
	C649.425537,411.188110 645.168701,415.428711 644.971375,421.303619 
	C644.838257,425.265228 644.192688,429.218933 644.214905,433.173706 
	C644.235229,436.786957 644.682922,440.426300 645.328430,443.984070 
	C645.461914,444.719574 647.298279,445.146088 648.349792,445.714996 
	C648.349792,445.714996 648.185242,445.832611 648.178101,446.113892 
	C651.054749,451.719116 654.987732,455.156830 661.562988,453.843994 
	C661.911377,453.898773 662.259766,453.953552 662.898621,454.411926 
	C663.452454,455.210510 663.715820,455.605499 663.891479,456.292450 
	C685.647400,456.748932 707.491150,456.914917 729.334839,457.075653 
	C731.602844,457.092346 733.871094,457.077911 736.139221,457.077911 
	C736.134888,457.601654 736.130554,458.125427 736.126221,458.649170 
	C730.623779,459.099457 725.084778,459.298065 719.631714,460.088989 
	C716.034668,460.610718 712.561157,461.984314 708.618408,462.981079 
	C704.327026,463.211670 700.449829,463.442657 696.572021,463.662384 
	C689.969971,464.036530 683.346069,464.900269 676.772095,464.615601 
	C671.566284,464.390198 669.139343,465.018829 668.088684,470.045532 
	C667.247498,474.069855 667.201782,478.256348 666.726685,482.362061 
	C665.511108,492.865967 664.219299,503.361053 663.022461,513.867065 
	C662.031250,522.568054 661.157593,531.282410 660.184570,539.985596 
	C659.155823,549.187134 657.651794,558.358276 657.120300,567.586731 
	C656.498230,578.387634 651.434082,588.715393 653.824036,599.818726 
	C654.008484,600.675720 653.216003,601.702087 653.072266,602.678406 
	C652.663513,605.456116 652.299805,608.243103 652.018372,611.036499 
	C651.189209,619.264587 650.525940,627.511047 649.577148,635.724854 
	C648.515442,644.915466 647.070557,654.062500 646.047363,663.256836 
	C644.558289,676.637146 643.292114,690.042358 641.942627,703.438049 
	C641.611389,706.725769 641.029236,710.023743 641.092651,713.306763 
	C641.174377,717.538635 643.765442,718.908813 647.672363,717.258118 
	C650.713013,715.973511 653.725769,714.564331 656.868958,713.592102 
	C665.686584,710.864746 674.478577,707.975769 683.440125,705.810730 
	C697.086060,702.513855 710.755005,699.451355 724.939697,698.865479 
	C744.550049,698.055420 763.479858,701.783936 782.369507,706.099243 
	C784.114929,706.497986 785.503967,708.456909 787.058472,709.691406 
	C786.772644,710.138367 786.486755,710.585327 786.200928,711.032227 
	C779.226074,710.128113 771.780457,713.333496 765.235596,707.872986 
	C764.313477,707.103638 761.678040,708.063782 759.971375,708.631470 
	C757.100525,709.586365 754.428711,711.463745 751.514465,711.905457 
	C741.553772,713.415344 731.503601,714.324707 721.525940,715.734802 
	C710.073242,717.353271 698.673279,719.342896 687.227234,721.012207 
	C680.609802,721.977356 673.873047,722.251587 667.325317,723.530029 
	C661.051514,724.755066 655.002441,727.088135 648.764404,728.549377 
	C641.050720,730.356323 633.257507,731.837463 625.469055,733.302490 
	C623.292358,733.711914 620.851501,733.096069 618.815674,733.786987 
	C615.665588,734.856140 612.896729,737.121521 609.723022,738.033569 
	C601.854553,740.294983 593.852905,742.095581 585.895569,744.043945 
	C582.360352,744.909546 578.523987,745.096558 575.312134,746.620117 
	C567.964050,750.105530 562.195679,748.324829 556.422974,743.155029 
	C553.389526,740.438293 550.754028,736.330383 545.640930,736.957703 
	C545.466125,736.898865 545.291382,736.840027 545.012268,736.161011 
	C544.436829,734.698242 544.135376,733.675720 543.465332,733.044189 
	C540.640564,730.382324 537.170166,728.225464 534.943481,725.153503 
	C531.986145,721.073425 527.729553,719.467224 523.652344,717.332092 
	C523.652344,717.332092 523.963440,717.043030 523.890137,716.824585 
	C520.865540,712.728699 519.620178,706.979736 513.189697,706.919189 
	C513.189697,706.919189 513.061829,706.925171 513.053101,706.496948 
	C509.445038,701.237610 505.986389,696.290405 502.157898,691.648254 
	C501.053345,690.308899 498.884857,689.846924 497.204163,688.982666 
z"></path>
<path fill="#F7F8FA" opacity="1.000000" stroke="none" d="
M934.729492,758.717041 
	C937.736938,759.016418 940.327820,759.202637 942.918701,759.388855 
	C943.473328,759.868164 944.027893,760.347473 944.582458,760.826782 
	C943.360168,761.257080 942.006470,761.477356 940.934875,762.148193 
	C910.091125,781.458496 877.427063,796.327454 841.609741,803.894226 
	C824.641724,807.479004 808.185242,804.791565 791.593567,801.635681 
	C780.318909,799.491028 768.970276,797.577759 757.573425,796.270447 
	C740.888672,794.356506 724.711975,798.171204 708.746826,802.305115 
	C695.627625,805.702209 682.828186,805.541931 669.777283,802.181458 
	C648.379333,796.671875 628.222656,788.098328 608.537537,778.266724 
	C608.169983,778.083130 607.972229,777.559448 607.918945,777.489197 
	C619.904419,775.355103 632.093140,773.809937 643.963196,770.944580 
	C670.812561,764.463379 697.494202,757.289612 724.262878,750.471619 
	C778.335999,736.699036 832.685730,736.257385 887.182800,747.573303 
	C902.975403,750.852539 918.607361,754.905640 934.729492,758.717041 
z"></path>
<path fill="#F9C764" opacity="1.000000" stroke="none" d="
M814.976685,365.140015 
	C815.006775,352.348785 815.036865,339.557587 815.649414,326.320984 
	C820.529785,324.890076 824.812866,323.833282 829.128723,322.933594 
	C838.622192,320.954437 848.147644,319.126831 857.630615,317.099640 
	C865.235291,315.473938 872.777161,313.554413 880.381409,311.926544 
	C894.763245,308.847870 909.163147,305.852173 923.568420,302.884552 
	C935.058411,300.517548 946.567566,298.243500 958.044434,296.328735 
	C960.339172,302.467682 962.591370,308.234009 964.994080,313.936951 
	C967.608887,320.143311 971.157410,325.981293 969.089050,333.331177 
	C967.151794,340.214935 968.242554,347.068787 970.709717,353.767517 
	C971.494385,355.897980 971.944580,358.329651 971.822449,360.584167 
	C971.379456,368.760315 971.144104,377.004547 969.820679,385.057129 
	C968.864441,390.875824 969.967896,397.508179 964.933594,402.306763 
	C964.671326,402.556793 965.604248,404.060791 965.535156,405.004700 
	C964.500427,405.124756 963.911316,405.221069 963.113403,405.438354 
	C962.558228,405.589661 962.267456,405.476898 961.809998,404.901550 
	C960.840576,404.483032 960.093506,404.383972 959.124878,404.395447 
	C958.550110,404.513672 958.254883,404.386688 957.860352,403.858276 
	C956.460510,403.419403 955.218079,403.247284 953.625366,403.093506 
	C952.179565,402.730225 951.084045,402.348572 949.775085,401.699646 
	C948.897339,401.346252 948.232910,401.260101 947.252625,401.211121 
	C945.958008,400.885651 944.979370,400.523041 943.946228,399.969360 
	C943.597534,399.822296 943.303284,399.866364 942.620728,399.930237 
	C932.146545,397.195160 922.059570,394.444031 911.974854,391.684784 
	C879.641663,382.838165 847.309326,373.988495 814.976685,365.140015 
z"></path>






<path fill="#BD272C" opacity="1.000000" stroke="none" d="
M745.877930,406.515869 
	C732.142639,393.482758 718.136169,380.924957 705.628418,367.019135 
	C700.585876,361.412994 697.515625,353.146088 695.835449,345.581940 
	C691.997864,328.305634 704.380920,312.917694 721.026184,312.841858 
	C728.982483,312.805603 735.528748,316.056122 740.806458,321.904816 
	C742.458191,323.735321 743.908203,325.747894 745.672241,327.954376 
	C746.699402,326.546387 747.534546,325.354065 748.417664,324.198425 
	C756.404724,313.747437 768.630737,310.074890 779.865112,314.741547 
	C790.687134,319.236847 797.076111,331.250610 795.589966,343.760681 
	C794.355469,354.152527 789.455811,362.939789 782.615845,370.237823 
	C770.918213,382.718964 758.388855,394.420654 745.877930,406.515869 
z"></path>
<path fill="#F7F8FA" opacity="1.000000" stroke="none" d="
M962.032349,405.220978 
	C962.267456,405.476898 962.558228,405.589661 963.365479,405.708649 
	C964.539429,405.986420 965.252502,406.114838 966.217346,406.444611 
	C967.298584,406.804840 968.128052,406.963715 969.182983,407.365326 
	C970.269043,407.727325 971.129700,407.846558 972.248047,408.144592 
	C973.110168,408.329956 973.714478,408.336548 974.555542,408.615784 
	C975.488708,409.022766 976.184998,409.157074 977.155151,409.508698 
	C978.953247,410.030640 980.477539,410.335266 982.291992,410.924316 
	C987.693176,412.656219 992.804260,414.103668 998.161377,415.790558 
	C1017.340698,421.281464 1036.255615,426.600769 1055.219360,431.740021 
	C1060.392944,433.142059 1065.713379,434.002716 1071.121826,435.415833 
	C1072.160156,435.855713 1073.043213,435.991638 1074.077393,436.393463 
	C1074.814453,436.750916 1075.400391,436.842438 1076.350220,437.059265 
	C1085.746582,439.577118 1094.778931,441.969727 1103.914429,444.670105 
	C1104.245117,445.335510 1104.472778,445.693237 1104.700439,446.050934 
	C1104.386963,458.859619 1104.362671,471.683044 1103.708740,484.474335 
	C1101.276978,532.028748 1089.032837,577.051697 1067.985229,619.687683 
	C1040.573364,675.215393 1001.190125,720.444397 950.334045,755.718750 
	C948.573120,756.940063 946.680176,757.971130 946.934509,756.565613 
	C944.807800,755.740051 942.467773,755.246399 940.587341,754.037720 
	C920.786865,741.310608 899.090454,732.939453 876.660339,726.377136 
	C867.572754,723.718445 858.248962,721.820068 848.963257,719.913757 
	C846.157104,719.337708 845.183105,718.359619 844.873108,715.500488 
	C838.158997,653.572388 831.284607,591.661682 824.550720,529.735718 
	C822.156372,507.717529 820.106506,485.661926 817.740845,463.640411 
	C817.447388,460.908722 818.066467,459.367310 820.459656,458.028015 
	C825.687866,455.102203 830.699219,451.788605 835.929138,448.865997 
	C839.534729,446.851074 841.148682,444.014160 841.076111,439.934631 
	C840.969482,433.938782 841.107971,427.938751 841.016663,421.942413 
	C840.935242,416.598969 838.380737,413.930389 833.046631,413.796783 
	C827.100342,413.647797 821.147461,413.762665 814.704102,413.762665 
	C814.704102,397.422455 814.704102,381.649261 814.840332,365.508057 
	C847.309326,373.988495 879.641663,382.838165 911.974854,391.684784 
	C922.059570,394.444031 932.146545,397.195160 942.845276,400.085510 
	C943.638916,400.200806 943.819824,400.180603 944.000671,400.160431 
	C944.979370,400.523041 945.958008,400.885651 947.486572,401.459961 
	C948.687134,401.770050 949.337830,401.868500 949.988464,401.966949 
	C951.084045,402.348572 952.179565,402.730225 953.884766,403.339722 
	C955.668823,403.753418 956.843262,403.939209 958.017700,404.125000 
	C958.254883,404.386688 958.550110,404.513672 959.382019,404.669342 
	C960.584595,404.962128 961.308472,405.091553 962.032349,405.220978 
M1018.245483,688.848022 
	C1022.055176,684.942810 1025.964844,681.128296 1029.628418,677.090454 
	C1031.244995,675.308777 1032.456177,673.128601 1033.679688,671.029175 
	C1034.974976,668.806458 1035.843872,666.312683 1037.287964,664.203430 
	C1041.843872,657.548950 1046.743774,651.125305 1051.162476,644.384155 
	C1052.728149,641.995605 1052.961792,638.764160 1054.383911,636.245056 
	C1057.366577,630.961243 1061.037109,626.053772 1063.854492,620.691895 
	C1066.446045,615.760010 1068.321167,610.448120 1070.455566,605.280396 
	C1074.025391,596.636902 1078.590942,588.231140 1080.802612,579.248901 
	C1083.031006,570.198547 1088.869995,562.427429 1088.960693,552.601318 
	C1089.007935,547.490417 1091.544067,542.429504 1092.738892,537.295532 
	C1094.273193,530.703186 1095.765991,524.091187 1096.941528,517.428528 
	C1097.829468,512.395996 1098.140625,507.264130 1098.801758,502.188599 
	C1099.473022,497.034729 1100.365967,491.907745 1100.944092,486.744598 
	C1101.193115,484.520416 1100.853882,482.234894 1100.850464,479.977142 
	C1100.834961,469.530823 1100.843506,459.084534 1100.843506,448.834137 
	C1098.369995,448.066284 1096.031860,447.899750 1094.440552,446.723236 
	C1091.636353,444.650024 1089.202148,444.485718 1086.179932,446.092804 
	C1085.272583,446.575256 1082.775879,446.114960 1082.540649,445.499969 
	C1080.142334,439.231842 1074.498657,438.973938 1069.260498,438.012604 
	C1066.218994,437.454437 1062.605225,438.056885 1060.157959,436.604858 
	C1054.100464,433.010681 1047.444214,432.058533 1040.830811,430.687073 
	C1037.743286,430.046844 1034.588013,429.700134 1031.534058,428.937500 
	C1023.960693,427.046265 1016.431152,424.979492 1008.875061,423.017670 
	C1007.771362,422.731110 1006.310791,423.013885 1005.537292,422.388062 
	C999.304810,417.345215 991.723694,416.230774 984.233032,415.066223 
	C980.251160,414.447113 976.046143,415.145660 972.109192,414.384216 
	C966.885681,413.373962 963.176636,408.904602 957.325500,408.275970 
	C950.307739,407.521942 943.473328,404.925751 936.609253,402.954285 
	C934.372864,402.311951 932.368347,400.643494 930.124695,400.290436 
	C925.438843,399.553162 920.655640,399.455597 915.933105,398.914886 
	C914.879456,398.794250 913.909424,397.932953 912.903809,397.407043 
	C908.312378,395.005707 903.960571,391.636078 899.074463,390.429840 
	C892.021606,388.688660 884.456848,389.060791 878.098389,384.625946 
	C877.281677,384.056305 875.867554,384.200897 874.739563,384.246643 
	C871.391235,384.382446 868.047607,384.634216 864.731506,384.838837 
	C864.274170,380.671997 864.274170,380.671997 853.437012,378.419037 
	C852.208862,382.184052 848.596069,383.254120 846.895142,380.331726 
	C843.906067,375.195862 840.770020,376.570404 837.092041,378.337372 
	C834.732178,379.471100 833.679016,378.846283 832.573425,376.462891 
	C830.770325,372.576172 827.635071,371.348907 824.010010,373.753601 
	C823.310608,375.827972 822.662415,378.535004 821.139893,379.180786 
	C817.234436,380.837341 816.739136,383.546387 816.952637,387.138428 
	C817.159851,390.625122 816.833679,394.145111 817.075134,397.627411 
	C817.180603,399.148193 817.754944,400.939331 818.748047,402.035370 
	C821.128784,404.662933 823.773071,407.091156 826.554382,409.292328 
	C827.391907,409.955109 829.151978,410.004120 830.281555,409.657257 
	C838.320618,407.188751 845.289917,411.180359 847.008789,419.527710 
	C847.278137,420.835632 847.067749,422.313049 846.782104,423.648560 
	C846.316956,425.823944 845.168823,427.929688 845.083496,430.095337 
	C844.843994,436.174072 845.000000,442.268372 845.000000,448.289124 
	C842.648376,449.591431 839.288025,450.487274 837.479919,452.669373 
	C834.415100,456.368073 828.438049,456.851501 827.160950,462.333588 
	C827.097656,462.605469 826.282410,462.863831 825.821899,462.855957 
	C822.067627,462.791870 821.254883,465.851044 821.272339,468.272919 
	C821.301575,472.324463 822.133911,476.411896 822.998352,480.404083 
	C823.882141,484.485504 826.362122,488.313599 823.456909,492.676178 
	C822.744568,493.745819 823.443054,495.848206 823.689636,497.445404 
	C824.369019,501.847595 826.003296,506.293549 825.699402,510.612396 
	C825.221680,517.401611 826.038940,523.533203 829.508728,529.441040 
	C830.722229,531.507263 832.002625,534.415710 831.467163,536.475342 
	C829.107605,545.550720 830.446960,554.204285 832.725159,563.025452 
	C833.939026,567.725586 835.284973,572.991333 834.283264,577.492615 
	C833.311584,581.859070 833.217468,585.478638 834.901733,589.391174 
	C835.206909,590.099976 835.733459,591.099060 835.470032,591.608032 
	C832.548767,597.251282 837.725464,602.449829 836.309204,608.068787 
	C835.985901,609.351501 837.679504,611.018250 837.848328,612.572998 
	C838.321838,616.932129 837.809631,621.502686 838.906677,625.668396 
	C841.297852,634.747986 843.248840,643.842712 843.147522,653.245728 
	C843.124329,655.394470 841.120300,657.707031 841.513428,659.642456 
	C843.105652,667.480347 843.002014,675.784851 847.695923,682.878662 
	C848.613342,684.265137 848.237305,686.610779 848.187683,688.506958 
	C848.129150,690.739929 847.625244,692.962219 847.582214,695.194336 
	C847.484741,700.249207 847.551453,705.307251 847.551453,710.277954 
	C848.948608,710.979492 850.873047,711.296997 851.415100,712.335754 
	C853.283447,715.916870 855.508789,717.864014 859.738220,716.213867 
	C860.307617,715.991699 861.581299,716.505493 861.972839,717.066528 
	C865.011414,721.420654 869.982483,721.075928 874.294250,722.117126 
	C877.080444,722.789978 880.301331,722.001465 882.913818,722.976257 
	C886.994141,724.498657 890.465271,728.329285 895.343018,725.092407 
	C895.607849,724.916626 896.476807,725.178711 896.708008,725.496399 
	C899.826050,729.779907 903.001648,733.854919 909.275818,731.423035 
	C911.226135,735.186646 914.894348,734.824707 918.287781,735.397522 
	C919.395630,735.584595 920.696838,736.838806 921.215820,737.933777 
	C924.082336,743.981934 929.356506,744.993896 935.197266,744.999512 
	C943.489685,745.007507 943.489685,745.005859 943.712097,753.018738 
	C944.821716,752.685242 946.435303,752.660583 946.715088,752.037231 
	C947.985596,749.207153 950.537048,749.661377 952.763672,748.787598 
	C956.694092,747.245178 961.515808,745.203979 963.354980,741.913208 
	C965.057312,738.867310 964.789795,735.297302 969.632874,735.782715 
	C970.026489,735.822144 970.449707,734.857971 970.964661,734.521790 
	C972.879395,733.271973 974.807129,732.035095 976.791870,730.901794 
	C978.054565,730.180786 979.629150,729.895081 980.714966,728.993835 
	C985.866821,724.718262 988.653809,718.070618 994.919556,714.838440 
	C995.837830,714.364746 996.213379,712.926453 996.992859,712.074341 
	C997.972717,711.003296 999.018494,709.947144 1000.196777,709.111633 
	C1003.580627,706.712097 1008.076477,705.381287 1008.228760,700.051270 
	C1008.246460,699.432129 1009.201233,698.822815 1009.753052,698.238770 
	C1012.500732,695.330505 1015.258972,692.432190 1018.245483,688.848022 
z"></path>

<path fill="#C8A259" opacity="1.000000" stroke="none" d="
M1070.966431,435.111847 
	C1065.713379,434.002716 1060.392944,433.142059 1055.219360,431.740021 
	C1036.255615,426.600769 1017.340698,421.281464 998.204407,415.423981 
	C998.039429,414.575317 998.077393,414.332642 998.478638,414.079773 
	C1000.519775,414.394836 1002.197510,414.720093 1003.996826,415.219177 
	C1004.444153,415.271118 1004.769836,415.149170 1005.481018,415.040161 
	C1008.904724,415.721252 1011.942993,416.389404 1015.082520,417.263428 
	C1015.368286,417.727356 1015.610901,417.906860 1016.070068,418.299072 
	C1017.172974,419.061218 1018.117554,419.532043 1019.471130,420.011230 
	C1023.619812,421.190094 1027.305176,422.620270 1031.122681,423.419067 
	C1032.968140,423.805176 1035.062012,423.005005 1037.043335,422.741943 
	C1036.345093,420.977325 1035.680420,419.198517 1034.941650,417.451050 
	C1033.314819,413.602325 1030.555664,409.860840 1030.225708,405.911346 
	C1029.502075,397.244690 1030.002197,388.476044 1029.999268,379.749023 
	C1029.996948,372.684967 1030.115479,365.617889 1029.947388,358.557709 
	C1029.797852,352.277557 1029.251343,346.007812 1029.023682,339.728271 
	C1028.836914,334.573334 1028.618408,329.399689 1028.853271,324.254395 
	C1029.156006,317.623993 1029.089233,311.054840 1026.840942,304.758850 
	C1024.967285,299.512024 1022.169861,294.544250 1020.771973,289.194092 
	C1019.613159,284.759186 1017.268616,283.675354 1013.296753,283.942780 
	C1011.482788,284.064972 1009.646057,283.849304 1007.962280,283.486664 
	C1016.135132,281.268433 1024.165405,279.350372 1032.195679,277.432312 
	C1032.610596,277.380402 1033.025513,277.328491 1034.119141,277.168152 
	C1039.969604,275.678406 1045.141479,274.297058 1050.313232,272.915710 
	C1050.706177,273.256348 1051.098999,273.596985 1051.684814,274.388916 
	C1051.889526,275.229980 1051.901245,275.619812 1051.527588,276.057373 
	C1048.409668,276.747925 1045.611938,277.206329 1042.981812,278.138367 
	C1042.118530,278.444305 1041.289673,279.948090 1041.213013,280.962189 
	C1041.166382,281.574982 1042.499634,282.511292 1043.388794,282.916199 
	C1044.335571,283.347321 1045.489624,283.323029 1046.935547,283.560333 
	C1045.733276,285.596802 1044.786255,287.200958 1043.777466,288.909729 
	C1045.192505,289.989441 1046.123657,291.092743 1047.302368,291.532837 
	C1053.071899,293.687073 1053.584839,297.511108 1052.365967,303.093323 
	C1051.380005,307.609070 1052.250366,312.520660 1052.209839,317.255890 
	C1052.184814,320.157410 1052.209717,323.085968 1051.830078,325.951782 
	C1051.209961,330.633575 1049.828247,335.253784 1049.617432,339.938232 
	C1049.442627,343.821259 1050.769775,347.749023 1050.916382,351.676208 
	C1051.044434,355.109741 1050.088135,358.588318 1050.258667,362.014771 
	C1050.610840,369.098633 1051.532593,376.152893 1051.951416,383.235168 
	C1052.230957,387.964203 1052.043945,392.720642 1052.071289,397.464783 
	C1052.084229,399.710602 1051.897339,401.982910 1052.173462,404.196777 
	C1052.788086,409.126434 1053.517944,414.049622 1054.447998,418.928345 
	C1054.834351,420.955750 1056.464111,422.869690 1056.442505,424.823181 
	C1056.407715,427.961334 1057.071289,429.742889 1060.447388,430.351379 
	C1063.687622,430.935394 1066.824951,432.089233 1070.277466,433.012939 
	C1070.687012,433.726105 1070.826782,434.418976 1070.966431,435.111847 
M1049.516235,427.414612 
	C1049.516235,427.414612 1049.581543,427.524384 1049.516235,427.414612 
z"></path>






<path fill="#FCDEA7" opacity="1.000000" stroke="none" d="
M1051.913086,276.009613 
	C1051.901245,275.619812 1051.889526,275.229980 1051.900391,274.550781 
	C1053.299805,273.807861 1054.676636,273.354309 1056.769775,272.913818 
	C1057.998169,272.592163 1058.510254,272.257446 1059.022217,271.922760 
	C1060.023071,271.899139 1061.023804,271.875549 1062.837402,271.900818 
	C1066.770996,270.987030 1069.891846,270.024414 1073.012817,269.061798 
	C1074.433594,268.731812 1075.854248,268.401855 1077.839600,268.288422 
	C1079.941650,267.985809 1081.479004,267.466675 1083.016479,266.947571 
	C1083.703491,266.913635 1084.390625,266.879730 1085.790283,266.892578 
	C1087.345459,266.347595 1088.187866,265.755890 1089.030273,265.164154 
	C1089.469116,265.115662 1089.908081,265.067200 1090.871826,265.271484 
	C1092.276611,265.084473 1093.156494,264.644714 1094.036377,264.204956 
	C1094.773682,264.129456 1095.510864,264.053986 1096.804443,264.230835 
	C1100.037231,266.027008 1102.713867,267.570831 1104.739258,268.739105 
	C1102.706177,272.498932 1100.480591,274.884186 1100.163818,277.500519 
	C1098.799683,288.769684 1098.985107,300.318848 1096.622192,311.340637 
	C1095.169067,318.118073 1096.993530,326.644318 1089.589966,331.593842 
	C1089.098267,331.922607 1089.033203,333.116943 1089.029175,333.909943 
	C1089.006226,338.423004 1086.649414,339.284302 1082.661377,337.692474 
	C1080.027466,332.505066 1077.569580,327.608704 1075.110229,322.537292 
	C1075.108765,322.362213 1075.034302,322.020050 1075.044800,321.690369 
	C1074.731079,320.812378 1074.406982,320.264069 1074.099121,319.541626 
	C1074.115356,319.367432 1074.037109,319.026428 1073.969727,318.758118 
	C1073.613281,318.265808 1073.323975,318.041809 1073.028076,317.605743 
	C1073.021240,317.393646 1072.938843,316.977325 1072.893799,316.728088 
	C1072.577637,316.290833 1072.306519,316.102783 1072.040283,315.952454 
	C1072.045410,315.990173 1072.104614,315.942291 1072.072144,315.597687 
	C1071.396851,314.041809 1070.754028,312.830536 1070.143921,311.474976 
	C1070.176636,311.330658 1070.108521,311.042664 1070.120605,310.775055 
	C1070.109619,310.330353 1070.086670,310.153229 1070.038818,309.613495 
	C1068.351074,305.850861 1066.828857,302.372894 1064.996948,299.066498 
	C1060.714722,291.337128 1056.283813,283.690033 1051.913086,276.009613 
z"></path>





































<path fill="#C8A259" opacity="1.000000" stroke="none" d="
M958.068176,295.928162 
	C946.567566,298.243500 935.058411,300.517548 923.568420,302.884552 
	C909.163147,305.852173 894.763245,308.847870 880.381409,311.926544 
	C872.777161,313.554413 865.235291,315.473938 857.630615,317.099640 
	C848.147644,319.126831 838.622192,320.954437 829.128723,322.933594 
	C824.812866,323.833282 820.529785,324.890076 815.836487,325.877136 
	C815.074158,325.097443 814.707153,324.316193 814.858521,323.439392 
	C817.776550,322.941498 820.176208,322.539215 822.575867,322.136963 
	C822.575867,322.136932 822.732361,322.387543 823.294128,322.345886 
	C861.727173,314.228271 899.592163,306.122986 937.473083,298.092316 
	C950.629822,295.303101 963.825745,292.698761 976.913696,290.379333 
	C970.571777,292.475159 964.320007,294.201660 958.068176,295.928162 
z"></path>
















































<path fill="#EABD62" opacity="1.000000" stroke="none" d="
M978.937378,289.528809 
	C979.388672,289.387726 979.840027,289.246674 980.912354,289.348267 
	C983.706238,289.385132 985.879089,289.179291 988.038086,289.403442 
	C988.520142,296.880280 988.916931,303.935852 989.537109,310.971710 
	C990.312683,319.770203 991.012634,328.589081 992.246399,337.328400 
	C993.022156,342.823212 995.972473,348.246918 995.722229,353.598511 
	C995.285645,362.937531 992.993164,372.178009 991.770813,381.498108 
	C991.307007,385.034515 990.670593,389.043518 991.846863,392.188629 
	C993.824036,397.475494 993.562073,402.339630 992.438660,407.591461 
	C992.168457,408.854706 993.752808,410.712860 994.836182,412.001648 
	C995.631592,412.947876 997.001465,413.411346 998.115356,414.089966 
	C998.077393,414.332642 998.039429,414.575317 997.958374,415.184570 
	C992.804260,414.103668 987.693176,412.656219 982.601257,410.752380 
	C982.739319,410.184784 982.889160,410.091553 982.967407,409.956696 
	C983.028931,409.850922 983.032349,409.581268 983.010010,409.575226 
	C977.350037,408.046295 971.685608,406.534058 966.011292,405.011536 
	C966.001343,405.001709 965.980713,404.980988 965.980713,404.980988 
	C965.604248,404.060791 964.671326,402.556793 964.933594,402.306763 
	C969.967896,397.508179 968.864441,390.875824 969.820679,385.057129 
	C971.144104,377.004547 971.379456,368.760315 971.822449,360.584167 
	C971.944580,358.329651 971.494385,355.897980 970.709717,353.767517 
	C968.242554,347.068787 967.151794,340.214935 969.089050,333.331177 
	C971.157410,325.981293 967.608887,320.143311 964.994080,313.936951 
	C962.591370,308.234009 960.339172,302.467682 958.044434,296.328735 
	C964.320007,294.201660 970.571777,292.475159 976.913696,290.379333 
	C977.003784,290.009979 977.001648,289.999298 977.266296,290.040100 
	C977.999756,289.896881 978.468567,289.712860 978.937378,289.528809 
z"></path>
<path fill="#EABD62" opacity="1.000000" stroke="none" d="
M957.860352,403.858276 
	C956.843262,403.939209 955.668823,403.753418 954.234985,403.321381 
	C955.218079,403.247284 956.460510,403.419403 957.860352,403.858276 
z"></path>
<path fill="#EABD62" opacity="1.000000" stroke="none" d="
M949.775085,401.699646 
	C949.337830,401.868500 948.687134,401.770050 947.802490,401.422791 
	C948.232910,401.260101 948.897339,401.346252 949.775085,401.699646 
z"></path>
<path fill="#EABD62" opacity="1.000000" stroke="none" d="
M961.809998,404.901550 
	C961.308472,405.091553 960.584595,404.962128 959.603577,404.558838 
	C960.093506,404.383972 960.840576,404.483032 961.809998,404.901550 
z"></path>
<path fill="#EABD62" opacity="1.000000" stroke="none" d="
M965.965515,406.243256 
	C965.252502,406.114838 964.539429,405.986420 963.574341,405.587677 
	C963.911316,405.221069 964.500427,405.124756 965.535156,405.004700 
	C965.980713,404.980988 966.001343,405.001709 966.001343,405.317078 
	C965.989441,405.836060 965.977478,406.039673 965.965515,406.243256 
z"></path>
<path fill="#EABD62" opacity="1.000000" stroke="none" d="
M943.946228,399.969360 
	C943.819824,400.180603 943.638916,400.200806 943.233521,400.065735 
	C943.303284,399.866364 943.597534,399.822296 943.946228,399.969360 
z"></path>



<path fill="#F7F8FA" opacity="1.000000" stroke="none" d="
M1018.129517,689.189209 
	C1015.258972,692.432190 1012.500732,695.330505 1009.753052,698.238770 
	C1009.201233,698.822815 1008.246460,699.432129 1008.228760,700.051270 
	C1008.076477,705.381287 1003.580627,706.712097 1000.196777,709.111633 
	C999.018494,709.947144 997.972717,711.003296 996.992859,712.074341 
	C996.213379,712.926453 995.837830,714.364746 994.919556,714.838440 
	C988.653809,718.070618 985.866821,724.718262 980.714966,728.993835 
	C979.629150,729.895081 978.054565,730.180786 976.791870,730.901794 
	C974.807129,732.035095 972.879395,733.271973 970.964661,734.521790 
	C970.449707,734.857971 970.026489,735.822144 969.632874,735.782715 
	C964.789795,735.297302 965.057312,738.867310 963.354980,741.913208 
	C961.515808,745.203979 956.694092,747.245178 952.763672,748.787598 
	C950.537048,749.661377 947.985596,749.207153 946.715088,752.037231 
	C946.435303,752.660583 944.821716,752.685242 943.712097,753.018738 
	C943.489685,745.005859 943.489685,745.007507 935.197266,744.999512 
	C929.356506,744.993896 924.082336,743.981934 921.215820,737.933777 
	C920.696838,736.838806 919.395630,735.584595 918.287781,735.397522 
	C914.894348,734.824707 911.226135,735.186646 909.275818,731.423035 
	C903.001648,733.854919 899.826050,729.779907 896.708008,725.496399 
	C896.476807,725.178711 895.607849,724.916626 895.343018,725.092407 
	C890.465271,728.329285 886.994141,724.498657 882.913818,722.976257 
	C880.301331,722.001465 877.080444,722.789978 874.294250,722.117126 
	C869.982483,721.075928 865.011414,721.420654 861.972839,717.066528 
	C861.581299,716.505493 860.307617,715.991699 859.738220,716.213867 
	C855.508789,717.864014 853.283447,715.916870 851.415100,712.335754 
	C850.873047,711.296997 848.948608,710.979492 847.551453,710.277954 
	C847.551453,705.307251 847.484741,700.249207 847.582214,695.194336 
	C847.625244,692.962219 848.129150,690.739929 848.187683,688.506958 
	C848.237305,686.610779 848.613342,684.265137 847.695923,682.878662 
	C843.002014,675.784851 843.105652,667.480347 841.513428,659.642456 
	C841.120300,657.707031 843.124329,655.394470 843.147522,653.245728 
	C843.248840,643.842712 841.297852,634.747986 838.906677,625.668396 
	C837.809631,621.502686 838.321838,616.932129 837.848328,612.572998 
	C837.679504,611.018250 835.985901,609.351501 836.309204,608.068787 
	C837.725464,602.449829 832.548767,597.251282 835.470032,591.608032 
	C835.733459,591.099060 835.206909,590.099976 834.901733,589.391174 
	C833.217468,585.478638 833.311584,581.859070 834.283264,577.492615 
	C835.284973,572.991333 833.939026,567.725586 832.725159,563.025452 
	C830.446960,554.204285 829.107605,545.550720 831.467163,536.475342 
	C832.002625,534.415710 830.722229,531.507263 829.508728,529.441040 
	C826.038940,523.533203 825.221680,517.401611 825.699402,510.612396 
	C826.003296,506.293549 824.369019,501.847595 823.689636,497.445404 
	C823.443054,495.848206 822.744568,493.745819 823.456909,492.676178 
	C826.362122,488.313599 823.882141,484.485504 822.998352,480.404083 
	C822.133911,476.411896 821.301575,472.324463 821.272339,468.272919 
	C821.254883,465.851044 822.067627,462.791870 825.821899,462.855957 
	C826.282410,462.863831 827.097656,462.605469 827.160950,462.333588 
	C828.438049,456.851501 834.415100,456.368073 837.479919,452.669373 
	C839.288025,450.487274 842.648376,449.591431 845.000000,448.289124 
	C845.000000,442.268372 844.843994,436.174072 845.083496,430.095337 
	C845.168823,427.929688 846.316956,425.823944 846.782104,423.648560 
	C847.067749,422.313049 847.278137,420.835632 847.008789,419.527710 
	C845.289917,411.180359 838.320618,407.188751 830.281555,409.657257 
	C829.151978,410.004120 827.391907,409.955109 826.554382,409.292328 
	C823.773071,407.091156 821.128784,404.662933 818.748047,402.035370 
	C817.754944,400.939331 817.180603,399.148193 817.075134,397.627411 
	C816.833679,394.145111 817.159851,390.625122 816.952637,387.138428 
	C816.739136,383.546387 817.234436,380.837341 821.139893,379.180786 
	C822.662415,378.535004 823.310608,375.827972 824.010010,373.753601 
	C827.635071,371.348907 830.770325,372.576172 832.573425,376.462891 
	C833.679016,378.846283 834.732178,379.471100 837.092041,378.337372 
	C840.770020,376.570404 843.906067,375.195862 846.895142,380.331726 
	C848.596069,383.254120 852.208862,382.184052 853.437012,378.419037 
	C864.274170,380.671997 864.274170,380.671997 864.731506,384.838837 
	C868.047607,384.634216 871.391235,384.382446 874.739563,384.246643 
	C875.867554,384.200897 877.281677,384.056305 878.098389,384.625946 
	C884.456848,389.060791 892.021606,388.688660 899.074463,390.429840 
	C903.960571,391.636078 908.312378,395.005707 912.903809,397.407043 
	C913.909424,397.932953 914.879456,398.794250 915.933105,398.914886 
	C920.655640,399.455597 925.438843,399.553162 930.124695,400.290436 
	C932.368347,400.643494 934.372864,402.311951 936.609253,402.954285 
	C943.473328,404.925751 950.307739,407.521942 957.325500,408.275970 
	C963.176636,408.904602 966.885681,413.373962 972.109192,414.384216 
	C976.046143,415.145660 980.251160,414.447113 984.233032,415.066223 
	C991.723694,416.230774 999.304810,417.345215 1005.537292,422.388062 
	C1006.310791,423.013885 1007.771362,422.731110 1008.875061,423.017670 
	C1016.431152,424.979492 1023.960693,427.046265 1031.534058,428.937500 
	C1034.588013,429.700134 1037.743286,430.046844 1040.830811,430.687073 
	C1047.444214,432.058533 1054.100464,433.010681 1060.157959,436.604858 
	C1062.605225,438.056885 1066.218994,437.454437 1069.260498,438.012604 
	C1074.498657,438.973938 1080.142334,439.231842 1082.540649,445.499969 
	C1082.775879,446.114960 1085.272583,446.575256 1086.179932,446.092804 
	C1089.202148,444.485718 1091.636353,444.650024 1094.440552,446.723236 
	C1096.031860,447.899750 1098.369995,448.066284 1100.843506,448.834137 
	C1100.843506,459.084534 1100.834961,469.530823 1100.850464,479.977142 
	C1100.853882,482.234894 1101.193115,484.520416 1100.944092,486.744598 
	C1100.365967,491.907745 1099.473022,497.034729 1098.801758,502.188599 
	C1098.140625,507.264130 1097.829468,512.395996 1096.941528,517.428528 
	C1095.765991,524.091187 1094.273193,530.703186 1092.738892,537.295532 
	C1091.544067,542.429504 1089.007935,547.490417 1088.960693,552.601318 
	C1088.869995,562.427429 1083.031006,570.198547 1080.802612,579.248901 
	C1078.590942,588.231140 1074.025391,596.636902 1070.455566,605.280396 
	C1068.321167,610.448120 1066.446045,615.760010 1063.854492,620.691895 
	C1061.037109,626.053772 1057.366577,630.961243 1054.383911,636.245056 
	C1052.961792,638.764160 1052.728149,641.995605 1051.162476,644.384155 
	C1046.743774,651.125305 1041.843872,657.548950 1037.287964,664.203430 
	C1035.843872,666.312683 1034.974976,668.806458 1033.679688,671.029175 
	C1032.456177,673.128601 1031.244995,675.308777 1029.628418,677.090454 
	C1025.964844,681.128296 1022.055176,684.942810 1018.129517,689.189209 
z"></path>

<path fill="#F9C764" opacity="1.000000" stroke="none" d="
M966.217346,406.444611 
	C965.977478,406.039673 965.989441,405.836060 966.011353,405.326935 
	C971.685608,406.534058 977.350037,408.046295 983.010010,409.575226 
	C983.032349,409.581268 983.028931,409.850922 982.967407,409.956696 
	C982.889160,410.091553 982.739319,410.184784 982.311157,410.467896 
	C980.477539,410.335266 978.953247,410.030640 976.979187,409.166382 
	C975.792603,408.518860 975.055664,408.431000 974.318787,408.343140 
	C973.714478,408.336548 973.110168,408.329956 972.103943,407.904724 
	C970.787170,407.364899 969.872314,407.243744 968.957458,407.122559 
	C968.128052,406.963715 967.298584,406.804840 966.217346,406.444611 
z"></path>

<path fill="#EABD62" opacity="1.000000" stroke="none" d="
M969.182983,407.365326 
	C969.872314,407.243744 970.787170,407.364899 971.846191,407.725922 
	C971.129700,407.846558 970.269043,407.727325 969.182983,407.365326 
z"></path>
<path fill="#EABD62" opacity="1.000000" stroke="none" d="
M974.555542,408.615784 
	C975.055664,408.431000 975.792603,408.518860 976.705444,408.949066 
	C976.184998,409.157074 975.488708,409.022766 974.555542,408.615784 
z"></path>
<path fill="#BD9A56" opacity="1.000000" stroke="none" d="
M1075.110229,322.537292 
	C1074.964966,323.522705 1075.098022,324.783356 1074.628784,325.074982 
	C1068.903687,328.633087 1070.972778,332.127655 1074.368286,335.954132 
	C1076.874146,338.777924 1077.687256,342.165588 1074.830322,345.225433 
	C1070.199463,350.185364 1071.030518,356.101990 1071.117432,362.075531 
	C1071.248169,371.065338 1070.903320,380.061279 1070.839600,389.055145 
	C1070.812012,392.950714 1070.966187,396.848022 1071.067139,400.743805 
	C1071.108398,402.333160 1071.197876,403.922760 1071.319214,405.508148 
	C1071.454956,407.284363 1071.009399,409.543457 1071.925903,410.750366 
	C1077.881470,418.593445 1073.206543,425.322784 1070.047363,432.626831 
	C1066.824951,432.089233 1063.687622,430.935394 1060.447388,430.351379 
	C1057.071289,429.742889 1056.407715,427.961334 1056.442505,424.823181 
	C1056.464111,422.869690 1054.834351,420.955750 1054.447998,418.928345 
	C1053.517944,414.049622 1052.788086,409.126434 1052.173462,404.196777 
	C1051.897339,401.982910 1052.084229,399.710602 1052.071289,397.464783 
	C1052.043945,392.720642 1052.230957,387.964203 1051.951416,383.235168 
	C1051.532593,376.152893 1050.610840,369.098633 1050.258667,362.014771 
	C1050.088135,358.588318 1051.044434,355.109741 1050.916382,351.676208 
	C1050.769775,347.749023 1049.442627,343.821259 1049.617432,339.938232 
	C1049.828247,335.253784 1051.209961,330.633575 1051.830078,325.951782 
	C1052.209717,323.085968 1052.184814,320.157410 1052.209839,317.255890 
	C1052.250366,312.520660 1051.380005,307.609070 1052.365967,303.093323 
	C1053.584839,297.511108 1053.071899,293.687073 1047.302368,291.532837 
	C1046.123657,291.092743 1045.192505,289.989441 1043.777466,288.909729 
	C1044.786255,287.200958 1045.733276,285.596802 1046.935547,283.560333 
	C1045.489624,283.323029 1044.335571,283.347321 1043.388794,282.916199 
	C1042.499634,282.511292 1041.166382,281.574982 1041.213013,280.962189 
	C1041.289673,279.948090 1042.118530,278.444305 1042.981812,278.138367 
	C1045.611938,277.206329 1048.409668,276.747925 1051.527588,276.057373 
	C1056.283813,283.690033 1060.714722,291.337128 1064.996948,299.066498 
	C1066.828857,302.372894 1068.351074,305.850861 1069.856934,309.711060 
	C1069.836060,310.461700 1069.972290,310.752197 1070.108521,311.042664 
	C1070.108521,311.042664 1070.176636,311.330658 1070.110352,311.891602 
	C1070.730957,313.615753 1071.417725,314.779022 1072.104614,315.942291 
	C1072.104614,315.942291 1072.045410,315.990173 1072.123535,316.181274 
	C1072.372070,316.665649 1072.617920,316.867279 1072.938843,316.977325 
	C1072.938843,316.977325 1073.021240,317.393646 1073.115112,317.866547 
	C1073.484985,318.568451 1073.761108,318.797455 1074.037109,319.026428 
	C1074.037109,319.026428 1074.115356,319.367432 1074.088623,319.880676 
	C1074.385986,320.935944 1074.710205,321.477997 1075.034302,322.020020 
	C1075.034302,322.020050 1075.108765,322.362213 1075.110229,322.537292 
z"></path>
<path fill="#D5AC5B" opacity="1.000000" stroke="none" d="
M1007.829468,283.796448 
	C1009.646057,283.849304 1011.482788,284.064972 1013.296753,283.942780 
	C1017.268616,283.675354 1019.613159,284.759186 1020.771973,289.194092 
	C1022.169861,294.544250 1024.967285,299.512024 1026.840942,304.758850 
	C1029.089233,311.054840 1029.156006,317.623993 1028.853271,324.254395 
	C1028.618408,329.399689 1028.836914,334.573334 1029.023682,339.728271 
	C1029.251343,346.007812 1029.797852,352.277557 1029.947388,358.557709 
	C1030.115479,365.617889 1029.996948,372.684967 1029.999268,379.749023 
	C1030.002197,388.476044 1029.502075,397.244690 1030.225708,405.911346 
	C1030.555664,409.860840 1033.314819,413.602325 1034.941650,417.451050 
	C1035.680420,419.198517 1036.345093,420.977325 1037.043335,422.741943 
	C1035.062012,423.005005 1032.968140,423.805176 1031.122681,423.419067 
	C1027.305176,422.620270 1023.619812,421.190094 1019.394775,419.664124 
	C1017.910217,418.875000 1016.911011,418.441376 1015.911743,418.007751 
	C1015.610901,417.906860 1015.368286,417.727356 1015.229858,416.917450 
	C1016.790894,413.177917 1015.610413,411.053131 1012.763733,409.329010 
	C1010.692871,408.074738 1008.829834,406.477478 1007.302368,405.349396 
	C1008.347778,401.771088 1009.343567,398.876526 1010.016663,395.908783 
	C1010.639038,393.164429 1011.219604,390.348389 1011.281067,387.552094 
	C1011.406616,381.839630 1011.138611,376.119476 1011.096313,370.402008 
	C1011.071045,366.991333 1011.099121,363.577240 1011.226990,360.169342 
	C1011.349854,356.893585 1011.636963,353.624084 1011.843201,350.351288 
	C1012.025330,347.459747 1012.676331,344.496307 1012.261597,341.691620 
	C1011.588928,337.142090 1008.787598,332.488068 1009.406982,328.246460 
	C1011.164001,316.213623 1006.846802,305.442352 1004.072632,294.320831 
	C1003.344788,291.402832 1001.312988,288.585388 1006.289185,287.591644 
	C1006.984314,287.452820 1007.380371,285.816772 1007.906616,284.604614 
	C1007.870117,284.157074 1007.841797,283.978729 1007.813477,283.800385 
	C1007.813477,283.800385 1007.839355,283.806030 1007.829468,283.796448 
z"></path>
<path fill="#E0B45F" opacity="1.000000" stroke="none" d="
M1007.914795,284.873779 
	C1007.380371,285.816772 1006.984314,287.452820 1006.289185,287.591644 
	C1001.312988,288.585388 1003.344788,291.402832 1004.072632,294.320831 
	C1006.846802,305.442352 1011.164001,316.213623 1009.406982,328.246460 
	C1008.787598,332.488068 1011.588928,337.142090 1012.261597,341.691620 
	C1012.676331,344.496307 1012.025330,347.459747 1011.843201,350.351288 
	C1011.636963,353.624084 1011.349854,356.893585 1011.226990,360.169342 
	C1011.099121,363.577240 1011.071045,366.991333 1011.096313,370.402008 
	C1011.138611,376.119476 1011.406616,381.839630 1011.281067,387.552094 
	C1011.219604,390.348389 1010.639038,393.164429 1010.016663,395.908783 
	C1009.343567,398.876526 1008.347778,401.771088 1007.302368,405.349396 
	C1008.829834,406.477478 1010.692871,408.074738 1012.763733,409.329010 
	C1015.610413,411.053131 1016.790894,413.177917 1015.128540,416.711609 
	C1011.942993,416.389404 1008.904724,415.721252 1005.175293,415.035645 
	C1004.281128,415.027283 1004.078247,415.036316 1003.875305,415.045349 
	C1002.197510,414.720093 1000.519775,414.394836 998.478638,414.079803 
	C997.001465,413.411346 995.631592,412.947876 994.836182,412.001648 
	C993.752808,410.712860 992.168457,408.854706 992.438660,407.591461 
	C993.562073,402.339630 993.824036,397.475494 991.846863,392.188629 
	C990.670593,389.043518 991.307007,385.034515 991.770813,381.498108 
	C992.993164,372.178009 995.285645,362.937531 995.722229,353.598511 
	C995.972473,348.246918 993.022156,342.823212 992.246399,337.328400 
	C991.012634,328.589081 990.312683,319.770203 989.537109,310.971710 
	C988.916931,303.935852 988.520142,296.880280 988.342407,289.393616 
	C989.067871,288.953766 989.475281,288.953766 990.199097,288.952881 
	C991.019714,288.631500 991.523926,288.310944 992.415771,287.978577 
	C993.837463,287.970062 994.871521,287.973389 996.144653,287.887024 
	C996.594055,287.537079 996.804382,287.276886 997.380432,287.001221 
	C998.478149,286.985779 999.210083,286.985840 1000.250122,286.969604 
	C1001.046997,286.630829 1001.535828,286.308289 1002.368164,285.825378 
	C1004.445984,285.401276 1006.180420,285.137543 1007.914795,284.873779 
z"></path>
<path fill="#EABD62" opacity="1.000000" stroke="none" d="
M1016.070068,418.299072 
	C1016.911011,418.441376 1017.910217,418.875000 1018.985840,419.655762 
	C1018.117554,419.532043 1017.172974,419.061218 1016.070068,418.299072 
z"></path>
<path fill="#EABD62" opacity="1.000000" stroke="none" d="
M1003.996826,415.219177 
	C1004.078247,415.036316 1004.281128,415.027283 1004.789795,415.022705 
	C1004.769836,415.149170 1004.444153,415.271118 1003.996826,415.219177 
z"></path>
<path fill="#D5AC5B" opacity="1.000000" stroke="none" d="
M1049.548828,427.469482 
	C1049.581543,427.524384 1049.516235,427.414612 1049.548828,427.469482 
z"></path>



















<path fill="#C8A259" opacity="1.000000" stroke="none" d="
M995.905579,287.976685 
	C994.871521,287.973389 993.837463,287.970062 992.105957,287.995422 
	C990.899902,288.333984 990.391296,288.643860 989.882690,288.953735 
	C989.475281,288.953766 989.067871,288.953766 988.356201,288.963623 
	C985.879089,289.179291 983.706238,289.385132 981.269348,289.352875 
	C989.718140,287.355743 998.431030,285.596680 1007.478638,283.819000 
	C1007.841797,283.978729 1007.870117,284.157074 1007.906616,284.604614 
	C1006.180420,285.137543 1004.445984,285.401276 1002.061890,285.845337 
	C1000.922180,286.345734 1000.432129,286.665802 999.942078,286.985901 
	C999.210083,286.985840 998.478149,286.985779 997.144531,287.094360 
	C996.330444,287.460876 996.117981,287.718781 995.905579,287.976685 
z"></path>
<path fill="#C8A259" opacity="1.000000" stroke="none" d="
M978.682251,289.438568 
	C978.468567,289.712860 977.999756,289.896881 977.271729,290.044312 
	C977.484070,289.787903 977.955566,289.568085 978.682251,289.438568 
z"></path>
<path fill="#EABD62" opacity="1.000000" stroke="none" d="
M1000.250122,286.969604 
	C1000.432129,286.665802 1000.922180,286.345734 1001.718506,286.005737 
	C1001.535828,286.308289 1001.046997,286.630829 1000.250122,286.969604 
z"></path>
<path fill="#EABD62" opacity="1.000000" stroke="none" d="
M990.199097,288.952881 
	C990.391296,288.643860 990.899902,288.333984 991.718323,288.007263 
	C991.523926,288.310944 991.019714,288.631500 990.199097,288.952881 
z"></path>
<path fill="#EABD62" opacity="1.000000" stroke="none" d="
M996.144653,287.886993 
	C996.117981,287.718781 996.330444,287.460876 996.778809,287.109802 
	C996.804382,287.276886 996.594055,287.537079 996.144653,287.886993 
z"></path>


</svg>